<svg xmlns="http://www.w3.org/2000/svg" version="1.1" xmlns:xlink="http://www.w3.org/1999/xlink" xmlns:svgjs="http://svgjs.dev/svgjs" width="1440" height="560" preserveAspectRatio="none" viewBox="0 0 1440 560"><g mask="url(&quot;#SvgjsMask2559&quot;)" fill="none"><rect width="1440" height="560" x="0" y="0" fill="url(&quot;#SvgjsLinearGradient2560&quot;)"></rect><path d="M868.76-67.42C725.03-56.8 647.96 212.69 372.11 225.27 96.25 237.85 8.39 412.44-124.55 415.67" stroke="rgba(87, 185, 226, 0.58)" stroke-width="2"></path><path d="M1031.26-5.16C865.09 54.38 843.52 533.49 594.15 549.33 344.77 565.17 375.59 479.33 157.03 479.33-61.52 479.33-169.41 549.11-280.08 549.33" stroke="rgba(87, 185, 226, 0.58)" stroke-width="2"></path><path d="M1030.7-70.94C860.75-55.2 772.89 287.7 457.69 300.19 142.49 312.68 33.19 455.58-115.32 456.99" stroke="rgba(87, 185, 226, 0.58)" stroke-width="2"></path><path d="M1260.19-34.48C1076.83-28.47 940 249.33 585.72 254.65 231.45 259.97 83.76 399.42-88.74 400.25" stroke="rgba(87, 185, 226, 0.58)" stroke-width="2"></path><path d="M916.93-30.97C747.68 14.89 697.01 477.01 440.68 483.96 184.35 490.91 88.14 350.84-35.57 349.56" stroke="rgba(87, 185, 226, 0.58)" stroke-width="2"></path></g><defs><mask id="SvgjsMask2559"><rect width="1440" height="560" fill="#ffffff"></rect></mask><linearGradient x1="50%" y1="0%" x2="50%" y2="100%" gradientUnits="userSpaceOnUse" id="SvgjsLinearGradient2560"><stop stop-color="rgba(14, 42, 71, 1)" offset="0.6"></stop><stop stop-color="rgba(169, 0, 255, 1)" offset="1"></stop></linearGradient></defs></svg>