<svg xmlns="http://www.w3.org/2000/svg" version="1.1" xmlns:xlink="http://www.w3.org/1999/xlink" xmlns:svgjs="http://svgjs.dev/svgjs" width="1440" height="560" preserveAspectRatio="none" viewBox="0 0 1440 560"><g mask="url(&quot;#SvgjsMask1393&quot;)" fill="none"><rect width="1440" height="560" x="0" y="0" fill="rgba(0, 24, 49, 1)"></rect><path d="M1578.09 205.39C1463.47 212.23 1385.93 426.82 1174.04 423.79 962.16 420.76 918.62-3.87 770-50.52" stroke="rgba(16, 206, 244, 0.58)" stroke-width="2"></path><path d="M1471.15 252.73C1355.53 252.53 1242.58 182.73 1014.01 182.73 785.44 182.73 793.99 255.04 556.87 252.73 319.75 250.42 238.71-54.11 99.73-69.8" stroke="rgba(16, 206, 244, 0.58)" stroke-width="2"></path><path d="M1482.9 355.6C1348.52 353.46 1188.95 200.14 972.22 187.6 755.49 175.06 802.8-35.44 716.88-53.43" stroke="rgba(16, 206, 244, 0.58)" stroke-width="2"></path><path d="M1537.16 285.08C1386.47 285.73 1255.3 412.15 947.12 408.28 638.93 404.41 545-42.73 357.07-71.74" stroke="rgba(16, 206, 244, 0.58)" stroke-width="2"></path><path d="M1490.21 365.37C1377.3 362.88 1303.56 220.48 1066.57 208.57 829.57 196.66 768.15-51.21 642.92-62.48" stroke="rgba(16, 206, 244, 0.58)" stroke-width="2"></path></g><defs><mask id="SvgjsMask1393"><rect width="1440" height="560" fill="#ffffff"></rect></mask></defs></svg>